<?xml version="1.0" encoding="utf-8"?>
<!-- Generator: Adobe Illustrator 16.0.4, SVG Export Plug-In . SVG Version: 6.00 Build 0)  -->
<!DOCTYPE svg PUBLIC "-//W3C//DTD SVG 1.1//EN" "http://www.w3.org/Graphics/SVG/1.1/DTD/svg11.dtd">
<svg version="1.1" id="gr_x5F_icon05_x5F_instantAnalytics"
	 xmlns="http://www.w3.org/2000/svg" xmlns:xlink="http://www.w3.org/1999/xlink" x="0px" y="0px" width="250px" height="250px"
	 viewBox="0 0 250 250" enable-background="new 0 0 250 250" xml:space="preserve">
<g id="gr_x5F_big_4_">
	<path id="gr_188_" fill="#F3BA48" d="M237.667,172.706c0,9.541-6.758,21.245-15.02,26.021l-82.628,47.696
		c-8.262,4.771-21.777,4.771-30.039,0l-82.628-47.696c-8.262-4.775-15.02-16.479-15.02-26.021V77.299
		c0-9.541,6.758-21.246,15.02-26.021L109.98,3.578c8.262-4.771,21.777-4.771,30.039,0l82.628,47.701
		c8.262,4.775,15.02,16.48,15.02,26.021V172.706z"/>
	<path fill="#FFFFFF" d="M187.5,99.306c0,3.486-2.832,6.318-6.318,6.318c-1.133,0-2.188-0.327-3.105-0.85l-28.428,24.795
		c0.244,0.664,0.391,1.377,0.391,2.129c0,3.481-2.832,6.318-6.318,6.318c-3.477,0-6.318-2.837-6.318-6.318
		c0-0.264,0.049-0.513,0.088-0.762l-27.139-14.61c-1.104,0.938-2.52,1.528-4.072,1.528c-0.859,0-1.68-0.176-2.422-0.488
		l-29.326,30.67c0.371,0.814,0.605,1.709,0.605,2.661c0,3.486-2.832,6.318-6.318,6.318s-6.319-2.832-6.319-6.318
		c0-3.481,2.833-6.313,6.319-6.313c0.85,0,1.67,0.17,2.412,0.479l29.336-30.67c-0.381-0.811-0.605-1.704-0.605-2.661
		c0-3.481,2.832-6.318,6.318-6.318c3.477,0,6.318,2.837,6.318,6.318c0,0.264-0.049,0.513-0.088,0.767l27.139,14.61
		c1.104-0.938,2.52-1.528,4.072-1.528c1.064,0,2.041,0.288,2.91,0.747l28.564-24.908c-0.195-0.61-0.332-1.245-0.332-1.914
		c0-3.481,2.832-6.318,6.318-6.318S187.5,95.825,187.5,99.306z"/>
</g>
</svg>
